<?xml version="1.0" encoding="utf-8"?>
<!-- Generator: Adobe Illustrator 28.1.0, SVG Export Plug-In . SVG Version: 6.00 Build 0)  -->
<svg version="1.1" id="Layer_1" xmlns="http://www.w3.org/2000/svg" xmlns:xlink="http://www.w3.org/1999/xlink" x="0px" y="0px"
	 viewBox="0 0 478.3 499.3" style="enable-background:new 0 0 478.3 499.3;" xml:space="preserve">
<style type="text/css">
	.st0{fill:#B16286;}
	.st1{fill:#D5C4A1;}
</style>
<path class="st0" d="M0,140.7c0.8-2.6,1.5-5.3,2.4-8c4-12.5,11.6-20.7,25-24.4c9.7-2.7,18.9-2.1,28.4-0.7c5.7,0.8,11.6,0.5,17.4,0.3
	c3.5-0.1,5.3-2.3,6.4-5.9c4.2-14.1,12.6-24.7,27.7-27.8c9-1.8,17.4,1.6,25.1,6c13.6,7.9,22.2,20.2,28.3,34.3
	c5.2,12,9.2,24.5,14.4,36.6c3.1,7.1,7.3,13.8,11,20.6c1.5,2.8,3.3,2.8,5.7,1.1c6.5-4.4,7.9-11,6.2-17.8c-1.4-6-3.9-12-7.1-17.2
	c-10.6-17.1-22.1-33.6-32.6-50.7c-6.5-10.5-10.1-22.3-11.6-34.7c-1.4-12.5,11.8-26.7,24.3-25.3c3.3,0.4,6.7,2,9.4,4
	c6.9,5.1,13,4.5,17-3.1c2.2-4.2,3.6-9.1,4.5-13.8c1.8-9.6,9.7-15.3,19.4-13.3c8.3,1.7,13.1,7.5,14.4,15.9c0.4,2.9,2.3,6,4.5,8.1
	c3.1,3,6.9,5.1,10.5,7.5c1.4,0.9,2.9,1.7,4.4,2.3c13.6,5.2,20.1,15.6,23.1,29.5c9.8,46.6-2.2,87.2-32.5,123c-3.3,3.9-7,7.6-10.8,11
	c-1.2,1.1-3.2,1.2-4.9,1.8c-0.5-1.6-1.7-3.4-1.4-4.9c1.5-5.8,2.5-11.9,5.4-17c8.2-14.7,9.5-30.7,10.6-46.9
	c0.5-7.1-1.6-13.8-6.7-19.2c-4.7-4.9-10.5-5.8-16.2-2.2c-7.5,4.7-11.3,11.8-12.1,20.5c-0.6,6.5-0.8,13.1-1.1,19.6
	c-0.8,14.1-1.6,28.1-2.4,42.2c-0.1,1.2-0.3,2.5-0.6,3.7c-1.7,6.9-6.7,10-13.2,7c-3.9-1.9-7.8-5.2-10.2-8.8c-3.6-5.6-6.1-11.9-8.7-18
	c-3.7-9-13.6-15.7-23-15.2c-6.3,0.4-10.3,3.5-12.1,9.5c-3.6,11.7-13.6,19.3-26.1,16.5c-9.2-2.1-14.7,1.2-16.4,8.5
	c-2.1,9,2.9,18.8,11.3,21.2c9.9,2.9,20.1,4.8,29.9,7.8c10.5,3.2,20.8,7.1,31.1,10.8c2.5,0.9,4,2.3,3,5.3c-1,2.9-2.8,4.1-5.7,3.8
	c-1.8-0.2-3.7-0.5-5.2-1.3c-16.5-8.4-34.3-7.4-52-7.1c-14.9,0.3-29.8,0.9-44.8,0.8c-11.2-0.1-22.1-2.6-32.6-6.7
	c-10-3.9-15.7-11.4-18-21.4c-1.1-4.7-1.8-9.6-1.8-14.5c-0.1-9.1-1.8-17.7-5-26.2C3.7,162.2,2,156,0,150L0,140.7L0,140.7L0,140.7z"/>
<path class="st0" d="M320,499.3c-10.2-0.8-17.3-7.2-24.9-13.2c-5.5-4.4-9-3.7-14.5,0.9c-6.6,5.5-14.3,6.1-22.1,3.6
	c-16-5.2-24.6-17.1-28.3-32.9c-3-13-1.4-26.1,0.4-39.1c4-28.9,4.8-57.9-1.9-86.5c-1.7-7.3-4.1-14.4-6.3-21.5
	c-1.3-4.1-2.3-8.1,1.6-11.7c7.5,6,13.1,13.4,17.9,21.5c9.6,16.2,14.3,34.1,18.6,52.2c1.2,4.9,2.6,9.7,4.3,14.4
	c0.8,2.2,2.3,4.2,3.9,5.9c4,4.2,8.5,7.4,14.8,5.3c5.3-1.8,9.8-7.7,9.4-14c-0.3-5.6-1.7-11.2-3.1-16.7c-0.9-3.6-3-6.9-3.9-10.6
	c-1.7-6.6,1.9-10.1,8.5-8.8c3.4,0.6,6.9,1.4,10.3,1.5c4.6,0.1,6.8-2.1,5.9-6.5c-0.9-4.2-2.7-8.5-5-12.2
	c-13.1-20.8-31.1-35.1-55-41.7c-2.3-0.6-4.4-1.9-6.6-2.8c0.1-0.5,0.1-1.1,0.1-1.6c1.9-0.4,3.8-1.2,5.5-1
	c30.9,4.8,59.8,15.2,85.4,33.3c23,16.2,38.5,37.6,42.9,66.2c3.4,22-5.7,32.4-27.5,37.6c-1.6,0.4-3.3,0.6-5.4,1.1
	c1.9,3,3.7,5.6,5.3,8.3c6.8,11.2,11.2,23.1,9.3,36.5c-2.3,16.1-13.4,28.3-29.4,32.2c-0.4,0.1-0.7,0.4-1.1,0.6L320,499.3L320,499.3
	L320,499.3z"/>
<path class="st0" d="M174.4,350.4c0.4,5.2,1.5,9.9,7.6,11c8.5,1.6,17.3-5.3,17.3-13.9c0-7.7-0.3-15.3-0.5-23
	c-0.2-6.2,0.3-12.3,3.7-17.8c1.1-1.8,2.7-3.4,4.8-6c2.7,8.3,5.2,15.5,7.4,22.8c6.9,22.9,11,46.2,9.8,70.1
	c-1,20.2-7.7,38.5-21.1,53.9c-8.7,10-19.5,14.7-33,13.7c-10.8-0.8-21.8-2.2-32.4,1.3c-5,1.6-9.7,4.6-14.8,5.5
	c-16.1,3.1-30.5-1.7-42.9-11.9c-22.6-18.5-28-42.9-22-70.2c2.3-10.5,0.3-18.5-7.4-25.7c-5.5-5.1-11.8-9.8-16-15.9
	c-14.1-20.7-16.8-48,2.4-66.8c7.5-7.4,17.8-12.6,27.6-16.9c28.1-12.4,57.3-14.6,87.1-6.2c5.6,1.6,11.2,2.9,16.5,5.1
	c2.6,1.1,4.7,3.8,6.7,6.1c1.9,2.3,3.5,5.1,1.4,8c-2.1,3.1-5.3,4.5-9.1,3.8c-9.3-1.8-18.6-2-27.8,0.5c-9.1,2.4-17.1,6.7-22.5,14.8
	c-6.9,10.5-4.2,20.1,7.6,24.4c4.5,1.6,9.5,1.5,14.3,2.3c1.4,0.2,3.8,0.2,4,0.8c0.6,1.7,0.8,4,0,5.4c-0.9,1.9-2.8,3.5-4.6,4.8
	c-3.1,2.3-6.5,4.3-9.7,6.6c-9.8,6.9-14.7,18.9-10,30.9c2.6,6.6,7.1,11.3,14.3,12c7.4,0.7,14.7-0.1,19-7.6c2.6-4.5,5-9,7.5-13.5
	C163.9,351.7,167.6,349.4,174.4,350.4L174.4,350.4L174.4,350.4z"/>
<path class="st0" d="M273.5,275c2.7-5.5,6.3-6.9,12.6-6.6c22.7,1.1,45.4,2.4,68.1,2.8c7.5,0.1,15.2-1.9,22.6-3.5
	c6.2-1.4,10.9-7.9,11.5-15c0.5-6.3-2.5-10.9-8.2-13.2c-5-2-10.2-4-15.5-4.5c-19.1-1.9-38.2-2.1-56.6,4.6c-3.7,1.3-7.2,2.9-10.8,4.6
	c-1,0.5-1.5,1.9-2.5,2.6c-1.5,1.1-3.3,2.7-4.9,2.7c-3.5,0-7.6-4.1-7.5-7.3c0-1.6,1.6-3.4,2.8-4.8c1.2-1.5,3-2.5,4.2-4
	c16.6-19.9,36-36.6,59.6-47.8c16-7.6,32.9-12.5,50.9-11.2c12.7,0.9,24.2,4.9,34.2,13.1c3.1,2.5,4.5,5.6,4.3,9.5
	c-0.1,2.1-0.1,4.2-0.2,6.3c-0.3,9.3,1.2,11.5,9.9,14.4c1.7,0.6,3.5,1.1,5.2,1.5c18,4.2,23.3,17.4,24,31.9c0.5,8.7-1.8,16.9-6.9,24.1
	c-4.1,5.7-9,10.2-16.4,11.1c-2.3,0.3-4.6,1.1-6.8,2c-7.5,2.9-9.7,6.3-9.3,14.4c0.7,13.4-5.4,22.2-18,26.1
	c-21.3,6.7-40.5,1.5-56.4-12.8c-22.4-20.2-48.5-31.9-77.6-37.7C281.9,277.2,277.9,276,273.5,275L273.5,275L273.5,275z"/>
<path class="st1" d="M337.2,139.1c-4.5,0.4-9.2,0.5-13.6,1.4c-4.8,1-7.6,4.4-8.2,9.4c-0.7,5.7,2.8,9.3,8.5,8.3
	c2.7-0.5,5.3-1.6,7.8-2.8c3.5-1.6,6.3-0.8,8.5,2.1c2.2,2.8,2,7.5-0.6,9.6c-1.2,1-3.2,1.4-4.9,1.5c-1.3,0-2.6-0.9-3.8-1.6
	c-12-7.8-21.9-0.7-25.4,9.3c-7.5,21.3-19.8,39.7-34.6,56.3c-14.4,16.2-31.2,29.1-52.1,35.9c-6.8,2.2-13.3-0.5-17.4-7.2
	c-4.2-6.8-3.7-14.2,1.1-19.3c6.9-7.4,15.8-11.8,24.3-16.9c28-16.8,53-37.1,71.5-64.5c2.3-3.5,4.5-7.1,6.5-10.7
	c2.2-4,1.4-7.5-2.2-10.3c-1.6-1.3-3.5-2.3-5.3-3.3c-2.2-1.3-4.5-2.3-6.5-3.7c-4-2.6-5.2-6.3-3.4-9.1c2-3.2,6.9-4.1,10.4-0.9
	c3.3,3,5.9,6.9,8,10.8c1.4,2.5,2.6,2.9,4.8,1.9c3.6-1.7,5-5,5.8-8.7c1.5-7.8-1.9-13.9-9-17.3c-3.6-1.7-7-4.1-9.9-6.8
	c-2.9-2.8-2.2-6.2,1.1-8.4c4.1-2.8,7.6-2.3,9.5,1.6c1.2,2.5,1.4,5.5,2.8,7.8c1.2,2.1,3.4,5,5.2,5c1.9,0,5.2-2.8,5.4-4.6
	c0.7-5.5,0.3-11.2,0.1-16.9c-0.1-1.8-0.8-3.5-1.3-5.3c-1.7-6.6-5-9.2-11.8-9.8c-4.1-0.4-8.5-0.5-12.4-1.8c-2.2-0.7-5.1-3.2-5.4-5.3
	c-0.4-2.2,1.7-4.9,3.1-7.1c1.6-2.5,3.9-4.7,5.6-7.2c1.8-2.6,3.2-5.6,5.1-8.2c2.6-3.6,5.4-4.3,9-1.9c2.9,1.9,5.6,1.8,8.8,1.2
	c3.8-0.8,7.6-1.8,11.5-2c4.8-0.3,7.3,1.4,8,6.1c1,6.7,4.7,10.5,10.7,12.5c5.7,2,8.3,6.1,8.4,12.1c0.1,4.9-2.7,7.4-7.4,5.9
	c-1.5-0.5-3.1-1.3-4.3-2.4c-5.3-4.6-11.3-4.6-16.2,0.5c-7.2,7.5-8,16.9-6.6,26.6c0.6,4,5.4,5.5,9,3.1c1.5-0.9,2.5-2.5,3.7-3.9
	c3.5-4.1,8.9-4,11.5,0.7c1.1,1.9,1.6,5.2,0.7,7c-0.9,1.7-3.9,2.9-6.1,3.2c-3.8,0.5-7.8-0.3-11.6,0.3c-8.6,1.4-12.7,7.3-11.8,15.8
	c0.6,6.2,5.2,8.5,10.4,5.1c1.3-0.8,2.3-2,3.4-3.1c2.6-2.4,5.9-2.8,8.5-1c2.5,1.6,4.7,4.2,5.9,6.9c1.1,2.4-2.4,5.2-5.7,5
	c-2.2-0.1-4.4-0.4-6.7-0.7L337.2,139.1L337.2,139.1L337.2,139.1z"/>
</svg>
